<svg width="147" height="33" viewBox="0 0 147 33" fill="none" xmlns="http://www.w3.org/2000/svg">
<path d="M54.6876 29.7936C54.578 29.7964 54.469 29.7778 54.3672 29.739C54.2654 29.7002 54.1729 29.6419 54.0954 29.5677C54.0183 29.4956 53.9575 29.409 53.9169 29.3133C53.8763 29.2177 53.8568 29.1151 53.8595 29.0119V7.43367C53.8639 7.35037 53.85 7.26712 53.8187 7.18929C53.7874 7.11146 53.7394 7.04078 53.6779 6.98181C53.6151 6.92456 53.541 6.87988 53.46 6.85039C53.379 6.82091 53.2927 6.80721 53.206 6.81011H49.6438C49.924 6.91608 50.1786 7.07603 50.3916 7.28004C50.6076 7.47935 50.778 7.71939 50.8921 7.985C51.0062 8.2506 51.0615 8.53598 51.0545 8.82311V29.0187C51.0573 29.1219 51.0377 29.2245 50.9971 29.3201C50.9565 29.4158 50.8958 29.5023 50.8186 29.5744C50.741 29.6485 50.6485 29.7068 50.5468 29.7456C50.445 29.7844 50.336 29.8031 50.2265 29.8004H48.745C48.6358 29.8033 48.5271 29.7847 48.4257 29.7459C48.3242 29.707 48.2322 29.6487 48.1552 29.5744C48.0777 29.5026 48.0167 29.4161 47.9761 29.3204C47.9355 29.2247 47.9161 29.1219 47.9193 29.0187V7.43367C47.9237 7.35037 47.9098 7.26712 47.8785 7.18929C47.8472 7.11146 47.7992 7.04078 47.7376 6.98181C47.675 6.92446 47.6009 6.87971 47.5199 6.85021C47.4388 6.82072 47.3524 6.80709 47.2658 6.81011H43.7201C44.1404 6.96994 44.5004 7.24767 44.753 7.60689C45.0056 7.96611 45.1389 8.39005 45.1355 8.82311V29.0187C45.1387 29.1219 45.1194 29.2247 45.0787 29.3204C45.0381 29.4161 44.9771 29.5026 44.8996 29.5744C44.8225 29.6485 44.7304 29.7067 44.629 29.7455C44.5276 29.7844 44.419 29.803 44.3099 29.8004H42.8283C42.7188 29.8032 42.6098 29.7846 42.508 29.7458C42.4062 29.7069 42.3137 29.6486 42.2362 29.5744C42.1591 29.5023 42.0983 29.4158 42.0577 29.3201C42.0171 29.2245 41.9976 29.1219 42.0003 29.0187V4.65025C41.9974 4.5467 42.0168 4.44368 42.0574 4.34765C42.098 4.25163 42.1589 4.16466 42.2362 4.09222C42.3141 4.01855 42.4067 3.9606 42.5084 3.92179C42.6101 3.88299 42.7189 3.86411 42.8283 3.86629H47.2705C47.5754 3.85837 47.8789 3.90952 48.1627 4.01667C48.4464 4.12382 48.7047 4.28477 48.9219 4.48985C49.201 4.74765 49.4016 5.07332 49.5022 5.43196C49.6038 5.07316 49.8052 4.74752 50.0849 4.48985C50.3005 4.28573 50.5567 4.12531 50.8384 4.01817C51.1201 3.91104 51.4215 3.85938 51.7245 3.86629H54.6876C54.9925 3.85784 55.2962 3.90875 55.58 4.01593C55.8638 4.12311 56.122 4.28434 56.3389 4.48985C56.5539 4.68977 56.7234 4.92997 56.8371 5.19547C56.9507 5.46096 57.006 5.74605 56.9995 6.03292V29.0209C57.0028 29.1242 56.9835 29.227 56.9429 29.3227C56.9023 29.4184 56.8412 29.5049 56.7636 29.5767C56.686 29.6508 56.5935 29.709 56.4917 29.7479C56.3899 29.7867 56.281 29.8053 56.1714 29.8026L54.6876 29.7936Z" fill="#040006"/>
<path d="M62.0409 29.7665C61.772 29.7747 61.5042 29.7239 61.2538 29.6173C61.0034 29.5106 60.7754 29.3502 60.5835 29.1457C60.3936 28.9455 60.2439 28.7052 60.1436 28.4395C60.0433 28.1738 59.9946 27.8885 60.0005 27.6015V6.03122C59.9944 5.74452 60.043 5.45954 60.1433 5.19419C60.2436 4.92884 60.3935 4.68887 60.5835 4.48936C60.7749 4.28401 61.0028 4.12291 61.2533 4.01581C61.5038 3.90872 61.7718 3.85785 62.0409 3.86629H67.271C67.3673 3.86416 67.463 3.88305 67.5524 3.92183C67.6419 3.96061 67.7232 4.0185 67.7915 4.09204C67.8598 4.16443 67.9135 4.25132 67.9493 4.34727C67.9852 4.44322 68.0023 4.54616 67.9997 4.64964V6.04025C68.0023 6.14373 67.9852 6.24667 67.9493 6.34262C67.9135 6.43857 67.8598 6.52546 67.7915 6.59785C67.7225 6.66957 67.6408 6.72551 67.5514 6.76236C67.462 6.7992 67.3666 6.81618 67.271 6.81231H61.5204C61.892 6.97096 62.2104 7.24822 62.4335 7.6074C62.6566 7.96658 62.7738 8.39073 62.7696 8.82373V16.4766C62.7658 16.5599 62.778 16.643 62.8056 16.7208C62.8333 16.7986 62.8756 16.8692 62.93 16.9281C62.9853 16.9854 63.0506 17.0301 63.1221 17.0596C63.1937 17.0891 63.2699 17.1027 63.3464 17.0997H64.6539C64.7498 17.096 64.8454 17.1131 64.9351 17.1499C65.0248 17.1867 65.1069 17.2426 65.1765 17.3142C65.2444 17.3868 65.298 17.4737 65.3338 17.5696C65.3696 17.6655 65.3869 17.7683 65.3847 17.8718V19.2624C65.3873 19.3658 65.3701 19.4688 65.3343 19.5647C65.2985 19.6607 65.2447 19.7476 65.1765 19.82C65.1069 19.8916 65.0248 19.9474 64.9351 19.9842C64.8454 20.021 64.7498 20.0381 64.6539 20.0344H61.5204C61.7682 20.1406 61.9935 20.3003 62.1825 20.504C62.3722 20.7038 62.5219 20.9438 62.6222 21.2091C62.7225 21.4743 62.7713 21.7592 62.7655 22.0459V26.2222C62.7615 26.3055 62.7737 26.3887 62.8013 26.4665C62.8289 26.5443 62.8713 26.6149 62.9258 26.6737C62.9811 26.731 63.0465 26.7757 63.118 26.8052C63.1895 26.8347 63.2657 26.8483 63.3422 26.8453H67.2648C67.3611 26.8433 67.4567 26.8622 67.5461 26.901C67.6355 26.9398 67.7169 26.9976 67.7853 27.071C67.8535 27.1434 67.9073 27.2303 67.9431 27.3263C67.9789 27.4222 67.9961 27.5252 67.9935 27.6286V29.0215C67.9963 29.1247 67.9792 29.2273 67.9434 29.323C67.9075 29.4186 67.8537 29.505 67.7853 29.5768C67.7174 29.651 67.6361 29.7093 67.5466 29.7482C67.4571 29.787 67.3612 29.8055 67.2648 29.8026L62.0409 29.7665Z" fill="#040006"/>
<path d="M78.4449 29.7981C78.3244 29.801 78.2044 29.7825 78.0925 29.7436C77.9805 29.7048 77.8789 29.6464 77.7939 29.5721C77.7084 29.5003 77.6411 29.4137 77.5963 29.318C77.5514 29.2223 77.5301 29.1195 77.5336 29.0163V20.6554C77.5382 20.5721 77.5228 20.4889 77.4883 20.4111C77.4538 20.3333 77.4009 20.2626 77.3331 20.2035C77.2639 20.1461 77.1821 20.1014 77.0927 20.0719C77.0033 20.0424 76.9079 20.0287 76.8123 20.0318H72.9064C73.2152 20.1386 73.496 20.2985 73.7318 20.5018C73.9691 20.7017 74.1562 20.942 74.2817 21.2075C74.4071 21.4731 74.4682 21.7582 74.4609 22.0451V29.0117C74.4646 29.115 74.4433 29.2178 74.3985 29.3136C74.3536 29.4093 74.2862 29.4958 74.2005 29.5676C74.1154 29.6417 74.0138 29.6999 73.9018 29.7387C73.7899 29.7776 73.6701 29.7962 73.5496 29.7936H71.9143C71.7934 29.7964 71.6731 29.7778 71.5607 29.739C71.4483 29.7001 71.3463 29.6418 71.2607 29.5676C71.1756 29.4955 71.1085 29.4089 71.0637 29.3133C71.0189 29.2176 70.9973 29.115 71.0003 29.0117V4.65011C70.9971 4.54653 71.0186 4.44349 71.0634 4.34745C71.1082 4.25141 71.1754 4.16443 71.2607 4.09197C71.3467 4.01829 71.4489 3.96033 71.5611 3.92151C71.6734 3.8827 71.7935 3.86382 71.9143 3.866H78.4527C78.7872 3.85909 79.1199 3.91075 79.4308 4.01791C79.7417 4.12507 80.0246 4.28552 80.2625 4.48967C80.5005 4.68919 80.6885 4.92931 80.8144 5.19492C80.9403 5.46053 81.0015 5.74589 80.9942 6.03303V16.4795C81.0008 16.9541 80.8253 17.4171 80.4953 17.7955C80.1653 18.174 79.6995 18.4464 79.1714 18.5698C79.5854 18.6649 79.9635 18.8527 80.2677 19.1143C80.506 19.3142 80.694 19.5547 80.8199 19.8207C80.9458 20.0867 81.0069 20.3724 80.9994 20.66V29.0208C81.0024 29.124 80.9808 29.2266 80.936 29.3223C80.8912 29.4179 80.8241 29.5045 80.739 29.5767C80.6533 29.6508 80.5513 29.709 80.4389 29.7478C80.3266 29.7867 80.2063 29.8053 80.0854 29.8026L78.4449 29.7981ZM72.8908 6.81263C73.3553 6.97169 73.7533 7.24928 74.0323 7.60875C74.3112 7.96822 74.4579 8.39265 74.4531 8.826V16.4863C74.4486 16.5698 74.4644 16.6532 74.4993 16.731C74.5343 16.8089 74.5878 16.8795 74.6562 16.9383C74.7252 16.9958 74.8069 17.0407 74.8964 17.0702C74.9859 17.0998 75.0814 17.1133 75.177 17.11H76.8097C76.9053 17.113 77.0006 17.0994 77.0901 17.0699C77.1795 17.0404 77.2613 16.9956 77.3304 16.9383C77.3984 16.8793 77.4514 16.8086 77.4859 16.7307C77.5205 16.6529 77.5358 16.5696 77.531 16.4863V7.43404C77.5358 7.35073 77.5205 7.26746 77.4859 7.18962C77.4514 7.11177 77.3984 7.04108 77.3304 6.9821C77.2613 6.92473 77.1795 6.87998 77.0901 6.85048C77.0006 6.82098 76.9053 6.80734 76.8097 6.81036L72.8908 6.81263Z" fill="#040006"/>
<path d="M86.044 29.802C85.7748 29.8105 85.5069 29.7598 85.2563 29.6529C85.0057 29.5461 84.7776 29.3853 84.5858 29.1803C84.3955 28.9801 84.2453 28.7395 84.1446 28.4734C84.0438 28.2074 83.9948 27.9216 84.0005 27.6341V6.03419C83.9947 5.74695 84.0437 5.46152 84.1445 5.19582C84.2452 4.93012 84.3954 4.68989 84.5858 4.49021C84.7773 4.28458 85.0053 4.12326 85.2559 4.01602C85.5066 3.90878 85.7747 3.85784 86.044 3.86629H89.9685C90.2361 3.85937 90.5022 3.91106 90.7509 4.01826C90.9997 4.12546 91.226 4.28598 91.4163 4.49021C91.606 4.69025 91.7558 4.93059 91.8561 5.19625C91.9565 5.4619 92.0053 5.74715 91.9995 6.03419V8.82149C92.0022 8.92513 91.9851 9.02825 91.9492 9.12435C91.9134 9.22045 91.8596 9.30745 91.7912 9.37986C91.7217 9.45175 91.6396 9.50779 91.5498 9.54467C91.46 9.58156 91.3643 9.59854 91.2683 9.59461H89.9622C89.8663 9.59879 89.7705 9.58194 89.6807 9.54504C89.5908 9.50814 89.5088 9.45196 89.4394 9.37986C89.3711 9.30737 89.3174 9.22036 89.2815 9.12427C89.2457 9.02819 89.2285 8.92511 89.2311 8.82149V7.42897C89.235 7.34563 89.2227 7.26233 89.1951 7.18445C89.1674 7.10658 89.1251 7.03586 89.0707 6.97686C89.0153 6.91957 88.9499 6.87486 88.8784 6.84536C88.8068 6.81586 88.7306 6.80215 88.6541 6.80505H85.5232C85.7706 6.91109 85.9954 7.07113 86.1835 7.27526C86.3738 7.47502 86.524 7.71526 86.6247 7.98094C86.7254 8.24662 86.7745 8.53201 86.7689 8.81923V26.2393C86.7649 26.3227 86.7771 26.406 86.8047 26.4839C86.8324 26.5618 86.8748 26.6325 86.9293 26.6914C86.9846 26.7488 87.05 26.7936 87.1216 26.8231C87.1931 26.8526 87.2694 26.8662 87.3459 26.8632H88.6541C88.7306 26.8661 88.8068 26.8524 88.8784 26.8229C88.9499 26.7934 89.0153 26.7487 89.0707 26.6914C89.1252 26.6325 89.1676 26.5618 89.1953 26.4839C89.2229 26.406 89.2351 26.3227 89.2311 26.2393V24.8445C89.2289 24.7409 89.2462 24.638 89.2821 24.542C89.3179 24.4459 89.3714 24.3589 89.4394 24.2862C89.5091 24.2145 89.5912 24.1586 89.6809 24.1217C89.7707 24.0848 89.8663 24.0677 89.9622 24.0714H91.2683C91.3643 24.0677 91.4599 24.0848 91.5497 24.1217C91.6395 24.1586 91.7216 24.2145 91.7912 24.2862C91.8596 24.3586 91.9134 24.4456 91.9492 24.5417C91.9851 24.6378 92.0022 24.7409 91.9995 24.8445V27.6341C92.0055 27.9215 91.9567 28.2071 91.8564 28.4732C91.756 28.7392 91.6062 28.9799 91.4163 29.1803C91.2255 29.3837 90.9991 29.5435 90.7504 29.6503C90.5017 29.7571 90.2359 29.8087 89.9685 29.802H86.044Z" fill="#040006"/>
<path d="M98.043 29.7936C97.7738 29.8018 97.5058 29.751 97.2551 29.6443C97.0044 29.5375 96.7762 29.377 96.5841 29.1723C96.394 28.972 96.2441 28.7314 96.1437 28.4655C96.0433 28.1996 95.9945 27.9141 96.0005 27.6269V4.64956C95.9974 4.54593 96.0144 4.44274 96.0502 4.34663C96.0861 4.25053 96.1402 4.16362 96.2089 4.09151C96.2777 4.01774 96.3594 3.95972 96.4493 3.9209C96.5392 3.88209 96.6353 3.86327 96.732 3.86558H98.0389C98.1356 3.8634 98.2317 3.88227 98.3215 3.92108C98.4114 3.95989 98.4932 4.01784 98.562 4.09151C98.6303 4.16396 98.6841 4.25092 98.7199 4.34695C98.7558 4.44298 98.773 4.546 98.7704 4.64956V24.8434C98.7764 25.1307 98.7276 25.4161 98.6272 25.682C98.5268 25.9479 98.3769 26.1885 98.1868 26.3888C97.998 26.5914 97.7732 26.7505 97.5261 26.8565H100.652C100.729 26.8595 100.805 26.8459 100.877 26.8164C100.949 26.7869 101.014 26.7421 101.069 26.6848C101.124 26.6259 101.166 26.5552 101.194 26.4774C101.222 26.3995 101.234 26.3162 101.23 26.2329V4.64956C101.227 4.546 101.244 4.44298 101.28 4.34695C101.316 4.25092 101.37 4.16396 101.438 4.09151C101.507 4.01784 101.589 3.95989 101.679 3.92108C101.769 3.88227 101.865 3.8634 101.961 3.86558H103.27C103.367 3.86345 103.462 3.88235 103.552 3.92116C103.641 3.95998 103.723 4.01791 103.791 4.09151C103.86 4.16396 103.913 4.25092 103.949 4.34695C103.985 4.44298 104.002 4.546 104 4.64956V29.0209C104.002 29.1242 103.985 29.2269 103.95 29.3226C103.914 29.4183 103.86 29.5049 103.791 29.5767C103.723 29.6507 103.642 29.7089 103.552 29.7478C103.463 29.7866 103.367 29.8053 103.27 29.8026L98.043 29.7936Z" fill="#040006"/>
<path d="M114.433 29.7981C114.312 29.801 114.192 29.7825 114.081 29.7436C113.969 29.7048 113.867 29.6464 113.783 29.5721C113.697 29.5003 113.63 29.4137 113.585 29.318C113.54 29.2223 113.519 29.1195 113.522 29.0163V20.6555C113.527 20.5723 113.512 20.489 113.477 20.4112C113.443 20.3334 113.39 20.2627 113.322 20.2036C113.253 20.1462 113.172 20.1015 113.082 20.072C112.993 20.0425 112.898 20.0289 112.802 20.0319H108.901C109.21 20.1387 109.49 20.2986 109.726 20.5019C109.963 20.7017 110.15 20.9419 110.276 21.2074C110.402 21.473 110.463 21.7582 110.456 22.0452V29.0118C110.46 29.115 110.439 29.2178 110.394 29.3135C110.349 29.4092 110.282 29.4958 110.196 29.5676C110.111 29.6417 110.01 29.6999 109.898 29.7387C109.786 29.7776 109.667 29.7962 109.546 29.7936H107.913C107.792 29.7964 107.672 29.7778 107.56 29.739C107.448 29.7001 107.346 29.6418 107.26 29.5676C107.175 29.4955 107.108 29.4089 107.064 29.3133C107.019 29.2176 106.997 29.115 107 29.0118V4.65039C106.997 4.54681 107.019 4.44378 107.063 4.34774C107.108 4.25169 107.175 4.16472 107.26 4.09226C107.346 4.01858 107.448 3.96061 107.56 3.9218C107.672 3.88299 107.792 3.86411 107.913 3.86629H114.443C114.779 3.85784 115.114 3.90876 115.427 4.01596C115.74 4.12316 116.024 4.28441 116.263 4.48996C116.501 4.68947 116.689 4.92959 116.815 5.1952C116.94 5.46081 117.002 5.74616 116.994 6.0333V16.4797C117.001 16.9543 116.826 17.4172 116.496 17.7957C116.166 18.1741 115.701 18.4465 115.174 18.5699C115.588 18.6646 115.965 18.8524 116.269 19.1145C116.507 19.3143 116.694 19.5548 116.82 19.8208C116.946 20.0868 117.007 20.3726 116.999 20.6601V29.0208C117.002 29.124 116.981 29.2267 116.936 29.3223C116.891 29.418 116.824 29.5045 116.739 29.5767C116.654 29.6508 116.552 29.709 116.44 29.7479C116.327 29.7867 116.207 29.8053 116.087 29.8026L114.433 29.7981ZM108.886 6.81288C109.195 6.91888 109.475 7.07885 109.71 7.28289C109.948 7.48257 110.135 7.72272 110.261 7.98829C110.387 8.25386 110.448 8.53913 110.441 8.82624V16.4865C110.436 16.5696 110.451 16.6526 110.485 16.7304C110.519 16.8082 110.571 16.879 110.638 16.9384C110.708 16.9956 110.789 17.0402 110.879 17.0697C110.968 17.0991 111.063 17.1129 111.159 17.1101H112.789C112.885 17.1132 112.98 17.0995 113.069 17.07C113.159 17.0405 113.24 16.9958 113.309 16.9384C113.377 16.8794 113.43 16.8087 113.464 16.7309C113.499 16.653 113.514 16.5698 113.509 16.4865V7.43429C113.514 7.35098 113.499 7.26771 113.464 7.18987C113.43 7.11203 113.377 7.04134 113.309 6.98236C113.24 6.92499 113.159 6.88023 113.069 6.85074C112.98 6.82124 112.885 6.8076 112.789 6.81062L108.886 6.81288Z" fill="#040006"/>
<path d="M120.054 29.7935C119.915 29.7965 119.776 29.7779 119.647 29.7391C119.517 29.7002 119.4 29.6419 119.302 29.5676C119.203 29.4958 119.125 29.4092 119.073 29.3135C119.021 29.2178 118.996 29.1151 119 29.0118V4.64957C118.996 4.54596 119.021 4.44282 119.073 4.34673C119.124 4.25064 119.202 4.16372 119.302 4.09152C119.4 4.01771 119.518 3.95965 119.647 3.92082C119.777 3.88199 119.915 3.8632 120.054 3.86559H121.946C122.085 3.8632 122.223 3.88199 122.353 3.92082C122.482 3.95965 122.6 4.01771 122.698 4.09152C122.798 4.16372 122.876 4.25064 122.927 4.34673C122.979 4.44282 123.004 4.54596 123 4.64957V29.0209C123.004 29.1241 122.979 29.2269 122.927 29.3226C122.875 29.4183 122.797 29.5048 122.698 29.5767C122.6 29.6509 122.483 29.7092 122.353 29.7481C122.224 29.787 122.085 29.8055 121.946 29.8026L120.054 29.7935Z" fill="#040006"/>
<path d="M128.554 29.7936C128.218 29.8021 127.883 29.7514 127.57 29.6446C127.257 29.5378 126.972 29.3772 126.732 29.1723C126.494 28.9722 126.306 28.7317 126.181 28.4658C126.055 28.1999 125.993 27.9143 126.001 27.6269V4.64957C125.997 4.54596 126.018 4.44282 126.063 4.34673C126.108 4.25064 126.175 4.16372 126.261 4.09152C126.346 4.01771 126.448 3.95965 126.56 3.92082C126.672 3.88199 126.791 3.8632 126.912 3.86559H128.547C128.667 3.8632 128.787 3.88199 128.899 3.92082C129.01 3.95965 129.112 4.01771 129.197 4.09152C129.283 4.16397 129.35 4.25094 129.395 4.34696C129.439 4.44299 129.461 4.54601 129.458 4.64957V24.8434C129.463 25.2768 129.316 25.7013 129.037 26.0607C128.758 26.4202 128.36 26.6977 127.896 26.8565H131.819C131.914 26.8594 132.01 26.8457 132.099 26.8162C132.188 26.7867 132.27 26.742 132.339 26.6848C132.408 26.6259 132.461 26.5552 132.495 26.4774C132.53 26.3995 132.545 26.3162 132.54 26.2329V4.64957C132.537 4.54601 132.558 4.44299 132.603 4.34696C132.648 4.25094 132.715 4.16397 132.8 4.09152C132.886 4.01802 132.987 3.96016 133.099 3.92136C133.211 3.88255 133.331 3.86359 133.451 3.86559H135.086C135.207 3.86341 135.327 3.88229 135.439 3.92109C135.551 3.9599 135.653 4.01785 135.739 4.09152C135.825 4.16389 135.892 4.25084 135.937 4.34689C135.982 4.44294 136.003 4.546 136 4.64957V29.0209C136.003 29.1242 135.982 29.227 135.937 29.3227C135.892 29.4184 135.825 29.5049 135.739 29.5767C135.654 29.6508 135.552 29.709 135.439 29.7479C135.327 29.7867 135.207 29.8053 135.086 29.8026L128.554 29.7936Z" fill="#040006"/>
<path d="M141.039 29.802C140.771 29.8103 140.503 29.7594 140.253 29.6526C140.003 29.5458 139.775 29.3852 139.583 29.1804C139.393 28.98 139.244 28.7393 139.143 28.4732C139.043 28.2072 138.995 27.9215 139.001 27.6341V24.8468C138.998 24.7432 139.015 24.6401 139.051 24.544C139.087 24.4479 139.14 24.3609 139.209 24.2885C139.278 24.2167 139.359 24.1608 139.449 24.1239C139.538 24.087 139.633 24.07 139.729 24.0737H141.039C141.135 24.07 141.231 24.0871 141.32 24.124C141.41 24.1609 141.492 24.2168 141.561 24.2885C141.629 24.3612 141.683 24.4482 141.719 24.5443C141.754 24.6403 141.772 24.7433 141.77 24.8468V26.2416C141.766 26.325 141.778 26.4083 141.805 26.4862C141.833 26.5641 141.875 26.6348 141.93 26.6937C141.985 26.7511 142.05 26.7959 142.122 26.8254C142.193 26.8549 142.269 26.8685 142.346 26.8655H143.652C143.729 26.8685 143.805 26.8549 143.876 26.8254C143.948 26.7959 144.013 26.7511 144.068 26.6937C144.123 26.6348 144.165 26.5641 144.193 26.4862C144.22 26.4083 144.233 26.325 144.229 26.2416V17.8774C144.233 17.7941 144.22 17.7107 144.193 17.6328C144.165 17.5549 144.123 17.4842 144.068 17.4253C144.013 17.3676 143.948 17.3226 143.876 17.2931C143.805 17.2636 143.729 17.2501 143.652 17.2535H141.039C140.77 17.262 140.503 17.211 140.252 17.1038C140.002 16.9965 139.774 16.8352 139.583 16.6296C139.393 16.4298 139.243 16.1895 139.143 15.9238C139.043 15.6581 138.994 15.3727 139.001 15.0856V6.03419C138.994 5.74712 139.043 5.46179 139.143 5.1961C139.244 4.93041 139.393 4.69009 139.583 4.49021C139.774 4.28458 140.002 4.12326 140.252 4.01602C140.503 3.90878 140.77 3.85784 141.039 3.86629H144.959C145.228 3.85784 145.495 3.90878 145.746 4.01602C145.996 4.12326 146.224 4.28458 146.415 4.49021C146.605 4.69014 146.755 4.93041 146.855 5.19606C146.956 5.4617 147.005 5.74701 147 6.03419V8.8215C147.002 8.92512 146.985 9.0282 146.949 9.12428C146.913 9.22037 146.86 9.30738 146.792 9.37987C146.722 9.45158 146.641 9.50753 146.552 9.54441C146.462 9.5813 146.367 9.59837 146.271 9.59462H144.965C144.869 9.59855 144.774 9.58157 144.684 9.54468C144.594 9.5078 144.512 9.45176 144.443 9.37987C144.375 9.30738 144.321 9.22037 144.285 9.12428C144.249 9.0282 144.232 8.92512 144.235 8.8215V7.42898C144.239 7.34564 144.226 7.26234 144.199 7.18446C144.171 7.10658 144.129 7.03587 144.075 6.97686C144.019 6.91958 143.954 6.87487 143.882 6.84537C143.811 6.81586 143.735 6.80216 143.659 6.80506H140.509C140.88 6.96392 141.198 7.24156 141.421 7.60123C141.644 7.9609 141.761 8.38565 141.757 8.81924V13.6976C141.753 13.7809 141.765 13.8643 141.793 13.9422C141.82 14.0201 141.863 14.0908 141.917 14.1497C141.972 14.2071 142.038 14.2519 142.109 14.2814C142.181 14.3109 142.257 14.3245 142.333 14.3215H144.946C145.215 14.3128 145.483 14.3634 145.733 14.4702C145.983 14.5771 146.211 14.738 146.403 14.9432C146.592 15.1431 146.742 15.3834 146.843 15.649C146.943 15.9147 146.992 16.2 146.987 16.4872V27.6341C146.993 27.9217 146.944 28.2074 146.843 28.4735C146.743 28.7395 146.593 28.9802 146.403 29.1804C146.211 29.3852 145.983 29.5458 145.733 29.6526C145.483 29.7594 145.215 29.8103 144.946 29.802H141.039Z" fill="#040006"/>
<g clip-path="url(#clip0_6_5419)">
<path d="M0.763266 17.2258C0.465515 16.1411 1.90944 15.2772 4.43488 14.7546L4.51428 13.9289C4.51428 13.9289 0 14.8171 0 16.8538C0 18.2639 1.18972 19.1311 3.9271 20.0556L4.01419 19.1432C2.65094 18.8637 1.06166 18.3092 0.763266 17.2258Z" fill="#040006"/>
<path d="M2.07849 17.0752C2.07849 17.6144 2.998 18.0151 4.09807 18.2671L4.3081 16.0773C3.00056 16.3561 2.07849 16.7224 2.07849 17.0752Z" fill="#040006"/>
<path d="M20.952 5.11218C20.1811 5.00487 19.4025 4.96219 18.6244 4.98456C12.357 5.14982 6.04336 8.93035 4.10254 14.8261C7.44823 14.0642 12.9063 13.9417 18.7538 14.782C18.7538 14.782 15.2 12.917 6.79062 12.79C6.79062 12.79 10.3956 5.53458 20.0485 6.07948" fill="#040006"/>
<path d="M28.4406 11.1406L28.5507 11.2682C28.5507 11.2682 29.9556 13.4236 29.3832 17.5027C29.3832 17.5027 25.4164 16.0798 23.8456 15.6849C23.8456 15.6849 23.9564 16.0677 29.3358 18.8624C29.3358 18.8624 30.6209 19.4003 30.3353 20.3421C30.0574 21.2571 29.2564 20.91 29.2564 20.91L24.6864 18.9575C18.5585 16.2776 12.3499 15.674 9.28021 15.6096C7.38485 15.5694 5.19814 15.8348 3.73564 16.2113C3.60988 16.838 3.53366 17.4735 3.50769 18.1121C4.06258 18.2741 4.62926 18.3929 5.20263 18.4675C6.13109 18.5951 5.72385 19.399 5.20263 19.3359C4.63059 19.2678 4.06326 19.1649 3.50385 19.0277C3.50705 19.1362 3.51153 19.2453 3.51729 19.3544C3.82017 24.7703 6.97056 29.4026 11.5015 31.6135L11.2012 29.1965C11.1881 29.0915 11.2064 28.985 11.2537 28.8904C11.3011 28.7957 11.3755 28.7171 11.4676 28.6644L12.1854 28.2535L10.5807 27.3921C10.5511 27.3768 10.5283 27.3511 10.5167 27.32C10.2721 26.6468 10.4424 25.6923 10.5327 25.2935C10.5374 25.2725 10.5369 25.2507 10.5314 25.23C10.5259 25.2092 10.5154 25.1901 10.5009 25.1742C10.4864 25.1583 10.4683 25.1461 10.4481 25.1387C10.4279 25.1312 10.4061 25.1287 10.3848 25.1314C8.34533 25.3758 7.84652 25.1033 8.37735 23.4469C8.73593 22.329 9.29749 20.6643 8.66293 18.8465C8.03734 17.0529 9.90068 16.7594 9.90068 16.7594C9.90068 16.7594 14.089 16.1666 16.9929 17.3738C17.7017 17.6693 20.0953 19.0609 22.6092 20.032C24.7274 20.85 24.9784 21.2616 24.9784 21.2616C24.9784 21.2616 25.2582 21.7318 25.1308 22.0713C25.0488 22.2901 25.0027 22.6723 24.0365 23.1783C23.2092 23.6109 22.9255 23.9529 22.7827 24.3147C22.7283 24.4525 22.6514 24.5795 22.6438 24.7275L22.5368 26.8382C22.5708 30.858 16.6567 32.4143 15.0111 32.7722C15.9636 32.9477 16.9319 33.0239 17.9002 32.9994C25.6526 32.8079 31.2997 26.7055 31.3509 18.9786C31.3707 15.8948 30.5223 12.6662 28.9599 10.1956" fill="#040006"/>
<path d="M22.1654 12.9661C22.1654 12.9661 28.7178 13.2347 29.1449 9.80384C29.1449 9.80384 29.337 9.15557 30.8187 8.46008C32.157 7.83287 32.3421 6.30215 32.3421 6.30215C32.3421 6.30215 33.608 5.50074 34.4615 3.90559C34.4615 3.90559 35.4393 3.35366 36.1085 2.68625C36.9229 1.87335 37.3808 1.12299 38 0C38 0 34.2714 1.65897 30.8444 1.92887C27.5531 2.18409 25.125 2.44506 24.5583 2.57714C24.5346 2.58288 24.5148 2.5899 24.4975 2.59309C22.9428 2.87384 21.3721 4.57109 18.8818 7.40281C18.8818 7.40281 19.4857 7.27903 21.1044 5.78468C22.7955 4.22462 23.5703 2.81577 28.1243 2.82088C28.1556 2.82088 28.0974 2.82088 28.1294 2.82088C31.5564 2.73027 36.0483 1.56262 36.0483 1.56262C36.0483 1.56262 35.7787 2.70092 33.487 3.33388C31.0806 3.99747 28.6845 4.20292 26.9262 4.4875C25.1679 4.77208 23.5863 6.0482 23.5863 6.0482C23.5863 6.0482 31.0653 4.63234 33.3026 4.41859C33.3026 4.41859 33.1636 5.53584 30.617 6.02268C28.0705 6.50952 24.2529 7.31795 23.2533 7.81564C23.2533 7.81564 23.9116 8.13978 26.7751 7.74481C30.2476 7.26563 31.5827 6.67733 31.5827 6.67733C31.5827 6.67733 31.7651 7.96622 28.5597 8.55133C25.2896 9.14791 22.4913 9.83192 22.4913 9.83192C22.4913 9.83192 24.0224 10.4323 28.3932 9.68963C28.3926 9.69218 28.545 11.4922 22.1654 12.9661Z" fill="#040006"/>
</g>
<defs>
<clipPath id="clip0_6_5419">
<rect width="38" height="33" fill="white"/>
</clipPath>
</defs>
</svg>
